<?xml version="1.0" encoding="UTF-8" standalone="no"?>
<!-- Created with Inkscape (http://www.inkscape.org/) -->

<svg
   width="320"
   height="200"
   viewBox="0 0 84.666665 52.916666"
   version="1.1"
   id="svg2643"
   inkscape:version="1.2 (dc2aedaf03, 2022-05-15)"
   sodipodi:docname="hello-stick.svg"
   xmlns:inkscape="http://www.inkscape.org/namespaces/inkscape"
   xmlns:sodipodi="http://sodipodi.sourceforge.net/DTD/sodipodi-0.dtd"
   xmlns="http://www.w3.org/2000/svg"
   xmlns:svg="http://www.w3.org/2000/svg">
  <sodipodi:namedview
     id="namedview2645"
     pagecolor="#ffffff"
     bordercolor="#666666"
     borderopacity="1.0"
     inkscape:showpageshadow="2"
     inkscape:pageopacity="1"
     inkscape:pagecheckerboard="true"
     inkscape:deskcolor="#d1d1d1"
     inkscape:document-units="mm"
     showgrid="false"
     inkscape:zoom="1.6819304"
     inkscape:cx="171.23182"
     inkscape:cy="142.09863"
     inkscape:window-width="1738"
     inkscape:window-height="1067"
     inkscape:window-x="448"
     inkscape:window-y="448"
     inkscape:window-maximized="0"
     inkscape:current-layer="layer1" />
  <defs
     id="defs2640" />
  <g
     inkscape:label="Layer 1"
     inkscape:groupmode="layer"
     id="layer1">
    <path
       style="fill:#000000;stroke-width:0.352777;stroke-linecap:square;paint-order:markers fill stroke"
       id="path3031"
       d="m 6.401387,9.3992228 c 0.1849173,1.7846502 0.256495,3.5785182 0.3274965,5.3705292 0.014825,0.374071 0.5438399,0.353107 0.5290159,-0.02096 v 0 C 7.1861573,12.938762 7.1139523,11.126789 6.9254972,9.3243499 6.8725541,8.9537481 6.3484439,9.0286209 6.401387,9.3992228 Z" />
    <path
       style="fill:#000000;stroke-width:0.352777;stroke-linecap:square;paint-order:markers fill stroke"
       id="path3033"
       d="m 6.7763437,11.433677 c 0.4835615,0 0.967123,0 1.4506847,0 0.3743645,0 0.3743645,-0.529431 0,-0.529431 v 0 c -0.4835617,0 -0.9671232,0 -1.4506847,0 -0.3743645,0 -0.3743645,0.529431 0,0.529431 z" />
    <path
       style="fill:#000000;stroke-width:0.352777;stroke-linecap:square;paint-order:markers fill stroke"
       id="path3035"
       d="M 9.1342476,7.293816 C 9.1054551,7.4033718 9.0689402,7.5111839 9.0478707,7.622483 8.9604058,8.0845111 8.9256276,8.5600118 8.8905648,9.0272771 8.817997,9.9943567 8.787799,10.953855 8.792648,11.92333 c 0.016769,0.809369 0.062381,1.617655 0.1054145,2.425912 0.019907,0.373835 0.5485887,0.345683 0.5286822,-0.02815 v 0 C 9.3841497,13.521267 9.3389663,12.721419 9.3220719,11.920504 9.3166559,10.967267 9.3473449,10.023961 9.418014,9.0730471 9.4498619,8.6445121 9.48351,8.1825594 9.5604993,7.7548064 9.5772527,7.6617252 9.6068127,7.57141 9.6299693,7.4797117 9.7614175,7.1291835 9.2656958,6.9432878 9.1342476,7.293816 Z" />
    <path
       style="fill:#000000;stroke-width:0.352777;stroke-linecap:square;paint-order:markers fill stroke"
       id="path3037"
       d="m 11.162188,12.534843 c 0.653596,-0.01441 1.239782,-0.35325 1.632592,-0.871906 0.08772,-0.115828 0.153684,-0.24663 0.230526,-0.369944 0.04526,-0.120881 0.121368,-0.234373 0.13579,-0.362642 0.05986,-0.532397 -0.393213,-1.0345537 -0.947578,-0.818335 -0.14475,0.05646 -0.254182,0.17875 -0.381273,0.268124 -0.0915,0.118229 -0.198893,0.225709 -0.274487,0.354686 -0.298934,0.510039 -0.474276,1.306064 -0.377672,1.895284 0.02247,0.137076 0.08068,0.265841 0.121013,0.398762 0.309405,0.528674 0.682232,0.665999 1.256406,0.741373 0.371885,0.04301 0.432706,-0.48292 0.06082,-0.525926 v 0 c -0.328998,-0.03065 -0.61239,-0.09077 -0.814331,-0.380958 -0.03168,-0.0859 -0.07824,-0.167705 -0.09504,-0.257708 -0.112744,-0.603782 0.09832,-1.332738 0.458012,-1.815317 0.09412,-0.105716 0.282895,-0.342971 0.428165,-0.16185 0.0293,0.03653 0.07025,0.07641 0.06761,0.123165 -0.0053,0.09341 -0.05975,0.177325 -0.08962,0.265986 -0.325237,0.550389 -0.734947,0.968872 -1.410927,0.987774 -0.374365,0 -0.374365,0.529432 0,0.529432 z" />
    <path
       style="fill:#000000;stroke-width:0.352777;stroke-linecap:square;paint-order:markers fill stroke"
       id="path3039"
       d="m 13.893123,6.1659232 c 0.107674,1.6724461 0.377661,3.3290441 0.634588,4.9836868 0.17248,1.163642 0.07209,0.596337 0.297393,1.702577 0.07488,0.366798 0.593614,0.260899 0.518732,-0.1059 v 0 C 15.122989,11.667183 15.222501,12.22616 15.050872,11.068374 14.798092,9.4404994 14.533013,7.8108962 14.422555,6.1659232 c 0,-0.3743645 -0.529432,-0.3743645 -0.529432,0 z" />
    <path
       style="fill:#000000;stroke-width:0.352777;stroke-linecap:square;paint-order:markers fill stroke"
       id="path3041"
       d="m 16.410072,5.6375445 c 0.03863,1.7717476 0.287789,3.5339982 0.486137,5.2937305 0.03042,0.286557 0.06084,0.573115 0.09126,0.859672 0.03952,0.372273 0.565992,0.316383 0.526473,-0.05589 v 0 c -0.03054,-0.287694 -0.06109,-0.575388 -0.09163,-0.863082 -0.196132,-1.7400404 -0.443074,-3.4826521 -0.482806,-5.2344305 0,-0.3743643 -0.529431,-0.3743643 -0.529431,0 z" />
    <path
       style="fill:#000000;stroke-width:0.352777;stroke-linecap:square;paint-order:markers fill stroke"
       id="path3043"
       d="m 21.108486,8.8453078 c -0.581132,0.4294928 -1.152195,0.8984477 -1.470192,1.5667142 -0.06851,0.143974 -0.108165,0.299981 -0.162248,0.449972 -0.01183,0.163111 -0.04764,0.326245 -0.03549,0.489333 0.05511,0.739753 0.658962,1.184537 1.368444,1.235287 0.167611,0.01199 0.335212,-0.02413 0.502817,-0.03619 0.165814,-0.09675 0.355267,-0.161249 0.497441,-0.290249 0.507359,-0.460349 0.875439,-1.49474 0.848255,-2.174199 -0.0066,-0.1638119 -0.05808,-0.3227006 -0.08712,-0.4840509 C 22.288453,8.9889437 22.012327,8.7942064 21.399099,8.585333 21.042509,8.4713518 20.881315,8.9756474 21.237906,9.0896285 v 0 c 0.358065,0.1033971 0.640228,0.2678166 0.813384,0.6163683 0.02608,0.1135994 0.07039,0.2245077 0.07825,0.3407982 0.03711,0.549677 -0.253414,1.354942 -0.611274,1.771092 -0.07132,0.08294 -0.170621,0.136949 -0.255932,0.205424 -0.116865,0.01464 -0.232849,0.04671 -0.350595,0.04394 -0.700682,-0.01651 -0.986557,-0.353079 -0.935723,-1.031091 0.03937,-0.118274 0.06614,-0.241515 0.118099,-0.354821 0.277997,-0.606195 0.801792,-1.0177319 1.322101,-1.4052102 0.304633,-0.2175949 -0.0031,-0.6484109 -0.307726,-0.430816 z" />
    <path
       style="fill:#000000;stroke-width:0.352777;stroke-linecap:square;paint-order:markers fill stroke"
       id="path3045"
       d="m 24.118229,6.2788246 c -0.06655,1.3192101 0.134951,2.623644 0.286024,3.9295754 0.04302,0.371884 0.568947,0.311039 0.525923,-0.06084 v 0 C 24.781407,8.8617503 24.58106,7.5777579 24.64766,6.2788246 c 0,-0.3743645 -0.529431,-0.3743645 -0.529431,0 z" />
    <path
       style="fill:#000000;stroke-width:0.352777;stroke-linecap:square;paint-order:markers fill stroke"
       id="path3047"
       d="m 24.280803,11.509449 c -0.202699,0.216701 -0.435269,0.396139 -0.146785,0.717597 0.131632,0.146678 0.401105,0.07773 0.550383,0.06235 0.161185,-0.06725 0.48552,-0.303944 0.527303,-0.49613 0.02004,-0.0922 0.0065,-0.188594 0.0098,-0.282891 -0.09876,-0.361102 -0.609437,-0.221434 -0.510676,0.139669 v 0 c 0.123227,-0.330046 -0.04259,0.07611 -0.120398,0.118333 -0.0377,0.01841 -0.10883,0.0141 -0.112798,0.05587 -0.03857,0.406003 0.0013,0.246189 0.133936,0.09862 0.292329,-0.233863 -0.0384,-0.647279 -0.330733,-0.413416 z" />
    <path
       style="fill:#000000;stroke-width:0.352777;stroke-linecap:square;paint-order:markers fill stroke"
       id="path3049"
       d="m 40.276668,9.6172675 c -0.123772,-0.05039 -0.380973,-0.162868 -0.50356,-0.1742493 -0.811578,-0.07535 -1.54469,0.2417921 -2.265786,0.5609478 -0.480898,0.284886 -0.749705,0.404015 -1.151794,0.805699 -0.470377,0.469898 -0.944955,1.190151 -1.21974,1.794 -0.103283,0.226968 -0.178684,0.465617 -0.268026,0.698426 -0.432612,1.369927 -0.372983,2.819898 0.04239,4.187774 0.08242,0.271409 0.19067,0.53429 0.286004,0.801435 0.399251,0.978036 0.993609,1.878982 1.842897,2.525654 0.576401,0.438888 0.744255,0.454627 1.421218,0.733695 1.560049,0.408845 3.223858,0.625328 4.82251,0.286647 0.327789,-0.06944 0.643313,-0.187676 0.964967,-0.281514 1.151274,-0.47641 2.199696,-1.158906 2.860619,-2.242056 0.364062,-0.596641 0.462849,-0.97777 0.692537,-1.625091 0.343693,-1.323371 0.567116,-2.747885 0.318534,-4.111819 -0.05245,-0.287773 -0.149848,-0.565512 -0.22477,-0.848268 C 47.418868,11.519681 46.754195,10.30288 45.690366,9.5075839 45.49441,9.3610913 45.274147,9.2502965 45.066037,9.1216529 44.838992,9.0279216 44.618486,8.916449 44.384904,8.8404588 43.157602,8.4411837 41.811815,8.4003284 40.533415,8.3915315 c -0.967581,-0.00539 -1.995988,0.1677781 -2.828848,0.6941886 -0.131588,0.083169 -0.247534,0.188826 -0.371301,0.2832391 -0.295775,0.229488 0.02877,0.6477798 0.324546,0.4182917 v 0 c 0.09858,-0.078098 0.190259,-0.1657892 0.295727,-0.2342949 0.307235,-0.1995601 0.523584,-0.2689762 0.875951,-0.3859487 0.554916,-0.1842127 1.112586,-0.2756908 1.700554,-0.2460551 1.435701,0.00837 2.92677,0.072215 4.260239,0.6526498 0.182644,0.1097701 0.376303,0.2030052 0.547928,0.3293099 0.986636,0.7261051 1.597861,1.8534541 2.045211,2.9632021 0.0698,0.255085 0.160784,0.505299 0.209399,0.765255 0.240474,1.285913 0.02701,2.631838 -0.291254,3.881297 -0.267959,0.766026 -0.5335,1.526118 -1.087553,2.143884 -0.571463,0.637178 -1.345232,1.053742 -2.116122,1.391451 -0.295132,0.08818 -0.584295,0.199605 -0.885396,0.26455 -1.507755,0.32521 -3.077962,0.121337 -4.552921,-0.252385 -0.229518,-0.09175 -0.467736,-0.164182 -0.688555,-0.275247 -1.088868,-0.547665 -1.814658,-1.577607 -2.276488,-2.672265 -0.09043,-0.251086 -0.192685,-0.498219 -0.27128,-0.753255 -0.388747,-1.261469 -0.454654,-2.601813 -0.06071,-3.868927 0.08046,-0.21318 0.148246,-0.431584 0.241382,-0.639538 0.235874,-0.526649 0.682578,-1.218867 1.087922,-1.632387 0.356603,-0.363797 0.59957,-0.47218 1.030592,-0.730823 0.614166,-0.274496 0.899718,-0.417992 1.56754,-0.5031159 0.110474,-0.014081 0.221223,-0.041229 0.332361,-0.034079 0.09599,0.00618 0.318058,0.1007349 0.417558,0.1402759 0.33484,0.167421 0.571611,-0.306117 0.236767,-0.4735379 z" />
    <path
       style="fill:#000000;stroke-width:0.352777;stroke-linecap:square;paint-order:markers fill stroke"
       id="path3051"
       d="m 41.736872,22.155023 c -0.02823,2.215845 0.175114,4.42759 0.389689,6.630691 0.300074,2.886911 0.602938,5.779643 1.124492,8.636307 0.142243,0.707667 0.262245,1.419024 0.370523,2.132512 0.05621,0.37012 0.579641,0.290621 0.523428,-0.0795 v 0 c -0.109242,-0.71868 -0.229799,-1.435301 -0.373134,-2.148136 -0.51929,-2.842088 -0.819404,-5.72035 -1.118375,-8.592535 -0.213149,-2.186013 -0.415261,-4.380659 -0.387192,-6.57934 0,-0.374364 -0.529431,-0.374364 -0.529431,0 z" />
    <path
       style="fill:#000000;stroke-width:0.352777;stroke-linecap:square;paint-order:markers fill stroke"
       id="path3053"
       d="m 40.444729,46.179155 c 0.70026,-1.306611 1.476986,-2.568477 2.175206,-3.876326 0.386276,-0.61917 0.705829,-1.272548 1.026734,-1.926217 0.107998,-0.219988 0.318444,-0.672939 0.504473,-0.867743 0.06056,-0.06341 0.151723,-0.08794 0.227584,-0.131906 0.07317,1.9e-5 0.14945,-0.02103 0.219517,5.6e-5 0.375332,0.112969 0.691692,0.596725 0.90383,0.876459 0.404283,0.533101 0.409617,0.564393 0.769056,1.121788 0.353798,0.653148 0.729321,1.293177 1.084739,1.945627 0.179088,0.328747 0.644012,0.07548 0.46492,-0.25327 v 0 C 47.459066,42.40363 47.077227,41.752117 46.715894,41.088071 46.275651,40.407156 45.427082,38.93227 44.5298,38.85203 c -0.151812,-0.01357 -0.299243,0.05813 -0.448865,0.08719 -0.122968,0.09129 -0.26438,0.161938 -0.368903,0.273875 -0.366229,0.392219 -0.580356,1.04897 -0.820801,1.519391 -0.109279,0.213802 -0.227082,0.423167 -0.344229,0.632762 -0.128984,0.230777 -0.262752,0.458851 -0.394128,0.688276 -0.700225,1.312085 -1.480394,2.577439 -2.181683,3.888862 -0.16742,0.334841 0.306118,0.571611 0.473538,0.236768 z" />
    <path
       style="fill:#000000;stroke-width:0.352777;stroke-linecap:square;paint-order:markers fill stroke"
       id="path3055"
       d="m 35.692043,31.675739 c 2.69618,-1.968884 5.573394,-3.6673 8.468981,-5.321874 1.76258,-1.036452 3.590758,-1.956978 5.350881,-2.99769 0.283733,-0.167763 0.984882,-0.624811 1.296826,-0.826711 0.582908,-0.338722 0.307287,-0.170663 0.828582,-0.501342 0.316037,-0.200674 0.03224,-0.647616 -0.283795,-0.446942 v 0 c -0.510741,0.324644 -0.23413,0.155258 -0.832469,0.503833 -0.287745,0.18626 -1.010031,0.656817 -1.268306,0.8095 -1.761374,1.041252 -3.590634,1.96258 -5.354402,2.999684 -2.948245,1.684961 -5.891062,3.404819 -8.613019,5.442608 -0.239662,0.287594 0.167058,0.626528 0.406721,0.338934 z" />
    <path
       style="fill:#000000;stroke-width:0.352777;stroke-linecap:square;paint-order:markers fill stroke"
       id="path3057"
       d="m 37.997574,13.653268 c 0.142788,0.191779 0.05568,0.08349 0.270743,0.317065 0.254156,0.27487 0.642879,-0.08456 0.388723,-0.359431 v 0 c -0.218186,-0.234817 -0.108273,-0.111432 -0.328734,-0.37105 -0.292328,-0.233864 -0.623062,0.179552 -0.330732,0.413416 z" />
    <path
       style="fill:#000000;stroke-width:0.352777;stroke-linecap:square;paint-order:markers fill stroke"
       id="path3059"
       d="m 43.028473,13.042139 c 0.177826,0.212711 0.307292,0.459129 0.459247,0.69071 0.205635,0.312832 0.648044,0.02202 0.442413,-0.290809 v 0 c -0.171921,-0.261051 -0.316339,-0.541584 -0.527296,-0.774266 -0.264716,-0.264716 -0.63908,0.109649 -0.374364,0.374365 z" />
    <path
       style="fill:#000000;stroke-width:0.352777;stroke-linecap:square;paint-order:markers fill stroke"
       id="path3061"
       d="m 38.672502,19.141834 c 0.901118,-0.190991 1.813981,-0.346487 2.692699,-0.629611 0.338143,-0.10895 1.166937,-0.436059 1.5117,-0.56995 0.805246,-0.39714 0.418645,-0.202108 1.160526,-0.583661 0.332906,-0.171238 0.09074,-0.642038 -0.242168,-0.470801 v 0 c -0.720617,0.370714 -0.350716,0.183498 -1.110049,0.560951 -0.298752,0.116061 -1.166453,0.4578 -1.462691,0.553619 -0.833657,0.269646 -1.69927,0.409025 -2.550017,0.610022 -0.374364,0 -0.374364,0.529431 0,0.529431 z" />
  </g>
</svg>
